<svg xmlns="http://www.w3.org/2000/svg" viewBox="0 0 32 32">
  <rect width="32" height="32" fill="#0070f3" rx="6"/>
  <path d="M12 23c-1.66 0-3-1.12-3-2.5S10.34 18 12 18s3 1.12 3 2.5S13.66 23 12 23zm0-3c-.55 0-1 .45-1 1s.45 1 1 1 1-.45 1-1-.45-1-1-1z" fill="#fff"/>
  <path d="M20 21c-1.66 0-3-1.12-3-2.5S18.34 16 20 16s3 1.12 3 2.5S21.66 21 20 21zm0-3c-.55 0-1 .45-1 1s.45 1 1 1 1-.45 1-1-.45-1-1-1z" fill="#fff"/>
  <path d="M13 20.5V9l8-2v11.5" stroke="#fff" stroke-width="2" fill="none" stroke-linecap="round"/>
  <path d="M21 7l-8 2" stroke="#fff" stroke-width="2" stroke-linecap="round"/>
</svg>
